<svg width="531" height="155" viewBox="0 0 531 155" fill="none" xmlns="http://www.w3.org/2000/svg">
<g filter="url(#filter0_d_107_263)">
<path d="M65.6025 76.9473L65.2119 73.9199V73.6514C65.5537 73.0492 66.0176 72.748 66.6035 72.748L86.5254 72.7725C87.5182 72.7725 88.3239 72.4551 88.9424 71.8203L89.4307 72.3086C88.5192 73.985 88.0635 77.0205 88.0635 81.415C88.0635 82.0986 88.21 83.417 88.5029 85.3701C88.8122 87.3395 88.9668 88.6416 88.9668 89.2764C88.9668 89.9274 88.861 90.4076 88.6494 90.7168C88.4378 91.026 88.1855 91.1807 87.8926 91.1807C87.5996 91.1807 87.3392 91.0098 87.1113 90.668C86.8997 90.3262 86.7939 89.8542 86.7939 89.252L87.1846 83.8564C87.1846 82.4242 86.9323 81.3499 86.4277 80.6338C85.9232 79.9014 85.2396 79.5352 84.377 79.5352C82.4401 79.5352 81.4717 80.9919 81.4717 83.9053C81.4717 85.0283 81.6344 86.6559 81.96 88.7881C82.3018 90.9202 82.4727 92.2549 82.4727 92.792C82.4727 93.3291 82.3506 93.736 82.1064 94.0127C81.8623 94.3057 81.5775 94.4521 81.252 94.4521C80.9427 94.4521 80.666 94.3138 80.4219 94.0371C80.194 93.7767 80.0801 93.4186 80.0801 92.9629L80.5195 85.1748C80.5195 82.3265 79.9092 80.9023 78.6885 80.9023L76.833 80.9512H57.6436C56.195 80.9512 55.1289 81.2279 54.4453 81.7812C53.6641 82.4323 53.2734 84.2715 53.2734 87.2988C53.2734 88.5195 53.4606 90.318 53.835 92.6943C54.2093 95.0869 54.3965 96.8854 54.3965 98.0898C54.3965 99.8314 53.778 100.702 52.541 100.702C51.2064 100.702 50.5391 99.807 50.5391 98.0166C50.5391 96.7959 50.8076 94.9893 51.3447 92.5967C51.8818 90.2041 52.1504 88.3893 52.1504 87.1523L52.0283 78.9736V50.5068C52.0283 49.4977 51.7191 48.6921 51.1006 48.0898L51.5889 47.5771C52.2562 48.2119 53.07 48.5293 54.0303 48.5293H85.3779C86.3708 48.5293 87.1846 48.2119 87.8193 47.5771L88.3076 48.0898C87.5915 48.806 87.2334 50.2057 87.2334 52.2891V53.3877C87.2334 55.2269 87.5915 56.4883 88.3076 57.1719L87.8193 57.6357C87.0055 56.8057 85.0931 56.3906 82.082 56.3906L69.9482 56.9521C66.9535 56.9521 65.0492 56.5371 64.2354 55.707L63.7227 56.1953C64.3574 56.8138 64.6748 57.6357 64.6748 58.6611C64.6748 59.6702 64.3574 60.484 63.7227 61.1025L64.2354 61.5664C65.0166 60.7526 66.6605 60.3457 69.167 60.3457L79.3965 60.9072C81.9193 60.9072 83.5876 60.5003 84.4014 59.6865L84.9141 60.1748C84.1979 60.891 83.8398 62.3883 83.8398 64.667V65.6191C83.8398 67.3607 84.1979 68.5895 84.9141 69.3057L84.4014 69.8184C83.6201 69.0046 81.9681 68.5977 79.4453 68.5977L69.2158 69.1348C66.7093 69.1348 65.0492 68.7279 64.2354 67.9141L63.7471 68.4023C64.4307 69.1022 64.7725 70.3229 64.7725 72.0645L64.7236 73.9688L64.3086 76.8984C64.3086 77.4844 64.5202 77.7773 64.9434 77.7773C65.3828 77.7773 65.6025 77.5007 65.6025 76.9473ZM93.7275 82.5625L93.8008 86.4443C93.8008 87.2256 93.6787 87.8115 93.4346 88.2021C93.1904 88.609 92.8975 88.8125 92.5557 88.8125C91.8721 88.8125 91.5303 88.1533 91.5303 86.835C91.5303 85.5166 91.693 84.0518 92.0186 82.4404C92.3441 80.8454 92.6289 79.7467 92.873 79.1445L104.592 50.3115C104.755 49.8883 104.836 49.4733 104.836 49.0664C104.836 48.6595 104.698 48.2607 104.421 47.8701L105.104 47.4307C105.576 48.1305 106.309 48.4805 107.302 48.4805H118.532C119.509 48.4805 120.233 48.1305 120.705 47.4307L121.413 47.8701C121.136 48.2607 120.998 48.6351 120.998 48.9932C120.998 49.3512 121.096 49.7826 121.291 50.2871L133.352 79.1689C133.726 80.0804 134.304 80.7965 135.085 81.3174L134.792 81.7812C133.994 81.2604 133.107 81 132.131 81H127.346C127.378 81.3581 127.395 81.6104 127.395 81.7568C127.395 82.2939 127.175 82.5625 126.735 82.5625C126.54 82.5625 126.361 82.4811 126.198 82.3184C126.052 82.1719 125.979 81.9521 125.979 81.6592C125.979 81.3825 125.995 81.1628 126.027 81H123.073C122.357 81 121.893 81.3906 121.682 82.1719C121.421 83.1322 121.291 84.2308 121.291 85.4678C121.291 86.721 121.372 87.8604 121.535 88.8857C121.698 89.9111 121.779 90.611 121.779 90.9854C121.779 91.376 121.682 91.6852 121.486 91.9131C121.307 92.1572 121.079 92.2793 120.803 92.2793C120.526 92.2793 120.29 92.1654 120.095 91.9375C119.899 91.7096 119.802 91.3923 119.802 90.9854C119.802 90.5785 119.899 89.7891 120.095 88.6172C120.306 87.4453 120.412 86.5664 120.412 85.9805V79.1201C120.249 78.6807 120.168 78.2738 120.168 77.8994C120.168 77.5251 120.314 77.1263 120.607 76.7031L119.973 76.2393C119.484 76.9391 118.752 77.2891 117.775 77.2891H107.741C106.765 77.2891 106.032 76.9473 105.544 76.2637L104.909 76.7031C105.218 77.1426 105.373 77.5495 105.373 77.9238C105.373 78.2982 105.316 78.6969 105.202 79.1201V79.1445C105.056 79.6979 104.982 80.1211 104.982 80.4141C104.982 80.707 105.145 81.0895 105.471 81.5615L104.836 82.0254C104.348 81.3418 103.615 81 102.639 81H93.8008C93.752 81.3092 93.7275 81.8301 93.7275 82.5625ZM110.256 70.5264H114.919C115.896 70.5264 116.774 70.7868 117.556 71.3076L117.873 70.8438C117.108 70.3229 116.555 69.5986 116.213 68.6709L113.112 60.7363C112.754 59.8086 112.567 58.8646 112.551 57.9043H112.233C112.201 58.9785 112.038 59.9225 111.745 60.7363L108.938 68.6465C108.596 69.5905 108.05 70.3229 107.302 70.8438L107.619 71.332C108.384 70.7949 109.263 70.5264 110.256 70.5264ZM126.101 89.0811C126.101 87.958 126.312 86.5501 126.735 84.8574C127.207 86.8105 127.443 88.0801 127.443 88.666C127.443 89.5286 127.215 89.96 126.76 89.96C126.32 89.96 126.101 89.667 126.101 89.0811ZM153.518 88.1289L153.762 85.6631V81.0977C149.383 80.8698 146.112 80.2757 143.947 79.3154C141.783 78.3389 140.188 77.1182 139.162 75.6533C138.544 74.7907 138.063 73.8304 137.722 72.7725C137.396 71.6982 136.851 70.8926 136.086 70.3555L136.452 69.8428C137.185 70.3311 137.974 70.5752 138.82 70.5752C139.683 70.5752 140.782 70.5426 142.116 70.4775C143.451 70.4124 144.956 70.3392 146.633 70.2578C148.309 70.1602 149.506 70.0951 150.222 70.0625C150.938 70.0299 151.467 69.9323 151.809 69.7695C152.15 69.5905 152.395 69.2731 152.541 68.8174L153.64 69.1836C153.591 69.3138 153.566 69.4847 153.566 69.6963C153.566 70.2334 154.014 70.8438 154.909 71.5273C155.804 72.2109 157.424 72.5527 159.768 72.5527C161.346 72.5527 162.469 72.2842 163.137 71.7471C163.43 71.5029 163.576 71.21 163.576 70.8682C163.576 70.0706 163.137 69.5417 162.258 69.2812C161.379 69.0208 160.313 68.8011 159.06 68.6221C157.823 68.4268 156.577 68.2721 155.324 68.1582C154.087 68.0443 152.744 67.8815 151.296 67.6699C149.847 67.4583 148.48 67.2305 147.194 66.9863C145.909 66.7259 144.655 66.3516 143.435 65.8633C142.23 65.375 141.197 64.8053 140.334 64.1543C139.471 63.487 138.771 62.6406 138.234 61.6152C137.714 60.5736 137.453 59.3936 137.453 58.0752C137.453 56.7568 137.657 55.5524 138.063 54.4619C138.487 53.3714 139.056 52.4355 139.772 51.6543C140.489 50.873 141.351 50.1813 142.36 49.5791C143.386 48.9769 144.452 48.4886 145.559 48.1143C146.682 47.7399 147.902 47.4388 149.221 47.2109C151.516 46.7878 153.68 46.5762 155.715 46.5762C157.749 46.5762 159.296 46.6087 160.354 46.6738C161.428 46.7227 162.681 46.8285 164.113 46.9912C165.562 47.1377 166.864 47.39 168.02 47.748C169.191 48.0898 170.347 48.5293 171.486 49.0664C173.863 50.1732 175.531 51.8903 176.491 54.2178C176.882 55.0479 177.419 55.821 178.103 56.5371L177.785 57.0986C177.102 56.6266 176.312 56.3906 175.417 56.3906H175.1C173.798 56.4395 171.934 56.5371 169.509 56.6836C167.1 56.8138 165.546 56.8952 164.846 56.9277C164.162 56.9603 163.666 57.0579 163.356 57.2207C163.063 57.3835 162.852 57.6927 162.722 58.1484L161.647 57.8555C161.696 57.709 161.721 57.5544 161.721 57.3916C161.721 56.708 161.167 56.1221 160.061 55.6338C158.954 55.1292 157.701 54.877 156.301 54.877C153.566 54.877 152.199 55.4141 152.199 56.4883C152.199 57.4486 154.25 58.1484 158.352 58.5879C159.312 58.7018 160.402 58.8158 161.623 58.9297C165.871 59.3691 169.126 59.9469 171.389 60.6631C176.141 62.1605 178.518 65.0169 178.518 69.2324C178.518 70.9577 178.16 72.512 177.443 73.8955C176.727 75.2627 175.791 76.3776 174.636 77.2402C173.496 78.1029 172.146 78.819 170.583 79.3887C167.767 80.4141 164.553 80.9268 160.939 80.9268C159.963 80.9268 159.385 80.9186 159.206 80.9023C158.327 80.9023 157.888 81.5778 157.888 82.9287V83.5146C157.888 83.9541 157.993 84.597 158.205 85.4434C158.433 86.306 158.547 86.9489 158.547 87.3721C158.547 88.2347 158.246 88.666 157.644 88.666C157.334 88.666 157.09 88.5358 156.911 88.2754C156.748 88.015 156.667 87.6895 156.667 87.2988C156.667 86.9082 156.765 86.2409 156.96 85.2969C157.172 84.3691 157.277 83.6937 157.277 83.2705C157.277 82.8473 157.269 82.5462 157.253 82.3672C157.253 82.2044 157.229 81.9928 157.18 81.7324C157.147 81.4883 157.082 81.3092 156.984 81.1953C156.757 80.9023 156.366 80.7559 155.812 80.7559C154.803 80.7559 154.299 81.6348 154.299 83.3926L154.445 87.3965C154.445 88.4707 154.291 89.0078 153.981 89.0078C153.672 89.0078 153.518 88.7148 153.518 88.1289ZM198.586 89.6426L198.854 84.8574C198.854 82.123 198.513 80.7559 197.829 80.7559C197.146 80.7559 196.804 81.6185 196.804 83.3438V84.0518C196.804 84.7516 196.958 85.7933 197.268 87.1768C197.593 88.5602 197.756 89.61 197.756 90.3262C197.756 91.4329 197.341 91.9863 196.511 91.9863C195.697 91.9863 195.29 91.4329 195.29 90.3262C195.29 89.5775 195.461 88.487 195.803 87.0547C196.145 85.6224 196.315 84.5319 196.315 83.7832L196.267 73.8223C196.267 73.3177 196.332 72.9271 196.462 72.6504C196.608 72.3737 196.901 72.1702 197.341 72.04L197.097 71.1123C196.869 71.1774 196.665 71.21 196.486 71.21C196.324 71.21 196.153 71.153 195.974 71.0391C195.762 70.8926 195.518 70.5996 195.241 70.1602L182.863 49.9941C182.375 49.1966 181.708 48.5456 180.861 48.041L181.081 47.626C181.895 48.0817 182.814 48.3096 183.84 48.3096L193.679 48.2607C194.655 48.2607 195.347 47.9108 195.754 47.2109L196.511 47.626C196.299 48.0166 196.193 48.4479 196.193 48.9199C196.193 49.3757 196.519 50.165 197.17 51.2881C197.837 52.4111 198.562 53.5016 199.343 54.5596C200.14 55.6175 200.865 56.7894 201.516 58.0752C202.183 59.361 202.517 60.4759 202.517 61.4199H203.029V61.2246C203.029 59.6947 204.087 57.4648 206.203 54.5352C208.319 51.6055 209.377 49.6442 209.377 48.6514C209.377 48.391 209.263 48.0492 209.035 47.626L209.792 47.2109C210.199 47.9108 210.899 48.2607 211.892 48.2607L221.145 48.3096C222.154 48.3096 223.065 48.0817 223.879 47.626L224.099 48.041C223.22 48.5618 222.544 49.2129 222.072 49.9941L209.572 70.1602C209.149 70.86 208.718 71.21 208.278 71.21C208.099 71.21 207.912 71.1774 207.717 71.1123L207.424 72.0156C208.205 72.2598 208.596 73.0736 208.596 74.457L208.449 77.8506C208.449 79.4131 208.791 80.5361 209.475 81.2197L208.962 81.708C208.327 81.0732 207.521 80.7559 206.545 80.7559H200.832C199.79 80.7559 199.27 82.2288 199.27 85.1748L199.636 89.7158C199.636 90.2855 199.457 90.5703 199.099 90.5703C198.757 90.5703 198.586 90.2611 198.586 89.6426ZM279.152 85.7363L279.494 83.0264L279.445 79.0225V60.1016C279.445 59.0924 279.803 58.1077 280.52 57.1475H279.177C278.705 59.4749 277.24 63.609 274.782 69.5498C272.455 75.1813 271.291 78.762 271.291 80.292L271.34 85.6631C271.34 86.249 271.47 87.1198 271.73 88.2754C272.007 89.4473 272.146 90.3343 272.146 90.9365C272.146 91.8643 271.787 92.3281 271.071 92.3281C270.355 92.3281 269.997 91.8561 269.997 90.9121C269.997 90.2936 270.144 89.374 270.437 88.1533C270.729 86.9489 270.876 86.0374 270.876 85.4189C270.876 83.4658 270.388 82.0091 269.411 81.0488C268.451 80.1048 267.377 79.6328 266.188 79.6328C265.017 79.6328 264.048 79.8851 263.283 80.3896C262.518 80.8942 262.136 81.5208 262.136 82.2695L262.429 84.9307C262.429 85.5329 262.209 85.834 261.77 85.834C261.33 85.834 261.11 85.5085 261.11 84.8574L261.55 80.292C261.55 78.7295 260.378 75.1732 258.034 69.623C255.593 63.8125 254.144 59.6621 253.688 57.1719H252.346C253.029 58.0833 253.371 59.0599 253.371 60.1016V84.2227L253.859 88.3242C253.859 89.1868 253.566 89.6182 252.98 89.6182C252.395 89.6182 252.102 89.2031 252.102 88.373L252.639 84.3691C252.639 83.7507 252.517 83.3031 252.272 83.0264C251.735 82.4242 249.904 82.123 246.779 82.123C243.654 82.123 242.092 82.1393 242.092 82.1719L242.214 85.3945C242.214 85.7689 242.027 85.9561 241.652 85.9561C241.278 85.9561 241.091 85.7852 241.091 85.4434L241.237 82.0498V52.0449C241.237 50.1243 240.651 48.5212 239.479 47.2354L239.992 46.7227C241.327 47.8945 242.93 48.4805 244.802 48.4805H257.277C259.41 48.4805 260.939 47.862 261.867 46.625L262.502 47.0889C261.672 48.2933 261.257 49.4082 261.257 50.4336C261.257 51.4427 261.517 52.5658 262.038 53.8027C262.559 55.0234 263.129 56.1872 263.747 57.2939C265.424 60.2887 266.262 62.7383 266.262 64.6426H266.604C266.604 62.6732 267.434 60.2236 269.094 57.2939C270.738 54.3968 271.56 52.2728 271.56 50.9219C271.56 49.5547 271.153 48.277 270.339 47.0889L270.974 46.625C271.901 47.862 273.431 48.4805 275.563 48.4805H288.063C289.951 48.4805 291.555 47.8945 292.873 46.7227L293.361 47.2354C292.206 48.5374 291.628 50.1406 291.628 52.0449V79.0225C291.628 79.7712 291.612 80.585 291.579 81.4639L291.091 81.9521C290.765 81.3174 290.285 81 289.65 81H281.423C281.065 81 280.739 81.2197 280.446 81.6592C280.153 82.0986 280.007 82.5055 280.007 82.8799L280.422 85.9072C280.422 86.4932 280.21 86.7861 279.787 86.7861C279.364 86.7861 279.152 86.4362 279.152 85.7363ZM320.632 84.9551L320.803 82.6113C320.803 82.2044 320.607 81.887 320.217 81.6592C319.826 81.4476 319.403 81.3418 318.947 81.3418C318.492 81.3418 318.085 81.4639 317.727 81.708C317.368 81.9521 317.189 82.3021 317.189 82.7578V88.373C317.189 89.1868 317.36 90.3831 317.702 91.9619C318.044 93.5407 318.215 94.6637 318.215 95.3311C318.215 96.0146 318.068 96.5762 317.775 97.0156C317.482 97.4551 317.076 97.6748 316.555 97.6748C316.05 97.6748 315.668 97.4469 315.407 96.9912C315.147 96.5355 315.017 95.9414 315.017 95.209C315.017 94.4766 315.204 93.207 315.578 91.4004C315.952 89.5938 316.14 88.194 316.14 87.2012C316.14 83.181 315.391 81.1709 313.894 81.1709C311.875 81.1709 310.866 81.0895 310.866 80.9268V80.9756C310.866 82.0986 311.11 83.7425 311.599 85.9072C312.103 88.0882 312.355 89.6507 312.355 90.5947C312.355 91.5387 312.185 92.3118 311.843 92.9141C311.501 93.5326 310.972 93.8418 310.256 93.8418C309.556 93.8418 309.003 93.5488 308.596 92.9629C308.205 92.377 308.01 91.612 308.01 90.668C308.01 89.7402 308.246 88.137 308.718 85.8584C309.19 83.596 309.426 81.8789 309.426 80.707C305.568 79.4863 302.663 77.4925 300.71 74.7256C298.773 71.9587 297.805 68.5407 297.805 64.4717C297.805 56.0407 302.053 50.7184 310.549 48.5049C313.299 47.7887 316.14 47.4307 319.069 47.4307C322.015 47.4307 324.514 47.5934 326.564 47.9189C328.632 48.2445 330.625 48.8223 332.546 49.6523C334.483 50.4661 336.127 51.5078 337.478 52.7773C338.845 54.0306 339.935 55.6582 340.749 57.6602C341.563 59.6458 341.97 61.9163 341.97 64.4717C341.97 69.68 340.505 73.7165 337.575 76.5811C334.646 79.4294 330.528 81.179 325.222 81.8301C325.157 81.944 325.124 82.123 325.124 82.3672L325.246 83.71C325.246 84.54 325.018 84.9551 324.562 84.9551C324.107 84.9551 323.879 84.5563 323.879 83.7588L323.952 82.3916C323.952 81.9033 323.602 81.6592 322.902 81.6592C322.837 81.8057 322.805 82.0824 322.805 82.4893L322.927 84.8574C322.927 85.3457 322.837 85.8177 322.658 86.2734C322.479 86.7292 322.178 86.957 321.755 86.957C321.006 86.957 320.632 86.2897 320.632 84.9551ZM311.403 64.4961C311.403 70.4531 314.235 73.4316 319.899 73.4316C325.563 73.4316 328.396 70.4531 328.396 64.4961C328.396 61.7617 327.663 59.6702 326.198 58.2217C324.733 56.7731 322.634 56.0488 319.899 56.0488C317.165 56.0488 315.065 56.7731 313.601 58.2217C312.136 59.6702 311.403 61.7617 311.403 64.4961ZM357.546 88.5684L358.132 81.9521C358.132 81.4313 357.839 81 357.253 80.6582C356.293 80.1211 355.121 79.8525 353.737 79.8525C351.882 79.8525 350.604 80.2188 349.904 80.9512C349.595 81.2767 349.44 81.7487 349.44 82.3672C349.44 83.002 349.628 84.1006 350.002 85.6631C350.376 87.2256 350.563 88.3242 350.563 88.959C350.563 89.61 350.441 90.1227 350.197 90.4971C349.969 90.8877 349.628 91.083 349.172 91.083C348.716 91.083 348.366 90.8877 348.122 90.4971C347.878 90.1227 347.756 89.61 347.756 88.959C347.756 88.3079 347.951 87.1849 348.342 85.5898C348.749 83.9948 348.952 82.7904 348.952 81.9766L348.928 52.0449C348.928 50.1243 348.342 48.5212 347.17 47.2354L347.683 46.7227C349.001 47.8945 350.604 48.4805 352.492 48.4805H359.792C360.834 48.4805 361.713 48.3584 362.429 48.1143C363.161 47.8538 363.747 47.3493 364.187 46.6006L364.992 46.9912C364.569 48.0003 364.357 48.9525 364.357 49.8477C364.357 50.5801 365.643 52.4193 368.215 55.3652C371.568 59.2064 373.724 61.7861 374.685 63.1045C375.645 64.4229 376.271 65.4889 376.564 66.3027H378.029C377.232 65.1309 376.833 63.4788 376.833 61.3467C376.833 60.3538 376.955 58.8727 377.199 56.9033C377.443 54.9176 377.565 53.4284 377.565 52.4355C377.565 49.7663 376.719 48.0329 375.026 47.2354L375.539 46.7227C376.857 47.8945 378.461 48.4805 380.349 48.4805H385.354C387.242 48.4805 388.845 47.8945 390.163 46.7227L390.651 47.2354C389.496 48.5374 388.918 50.1406 388.918 52.0449L388.869 81.8545C388.869 82.5544 389.032 83.596 389.357 84.9795C389.683 86.3792 389.846 87.429 389.846 88.1289C389.846 89.1706 389.447 89.6914 388.649 89.6914C387.852 89.6914 387.453 89.1706 387.453 88.1289C387.453 87.4453 387.608 86.4362 387.917 85.1016C388.226 83.7832 388.381 82.8717 388.381 82.3672C388.381 81.8789 388.218 81.529 387.893 81.3174C387.567 81.1058 387.25 81 386.94 81H377.297C375.93 81 375.246 82.2451 375.246 84.7354C375.246 85.7607 375.433 87.2419 375.808 89.1787C376.198 91.1318 376.394 92.6048 376.394 93.5977C376.394 95.0137 375.865 95.7217 374.807 95.7217C373.749 95.7217 373.22 95.0055 373.22 93.5732C373.22 92.6618 373.423 91.3353 373.83 89.5938C374.253 87.8522 374.473 86.542 374.489 85.6631L374.538 82.416C374.587 80.9023 374.432 79.9176 374.074 79.4619L362.38 64.6426C362.071 64.2357 361.729 63.3893 361.354 62.1035L359.865 62.1523C360.712 63.0312 361.135 64.0078 361.135 65.082V79.0225L361.599 91.376C361.599 91.6364 361.517 91.8561 361.354 92.0352C361.208 92.2305 360.996 92.3281 360.72 92.3281C360.459 92.3281 360.24 92.2142 360.061 91.9863C359.882 91.7747 359.792 91.5306 359.792 91.2539L360.085 81.8789C360.085 81.6836 360.012 81.5046 359.865 81.3418C359.719 81.179 359.548 81.0977 359.353 81.0977C358.929 81.0977 358.718 81.4232 358.718 82.0742C358.718 82.7253 358.824 83.7913 359.035 85.2725C359.263 86.7536 359.377 87.7708 359.377 88.3242C359.377 89.5612 359.068 90.1797 358.449 90.1797C357.847 90.1797 357.546 89.6426 357.546 88.5684ZM411.11 76.9473L410.72 73.9199V73.6514C411.062 73.0492 411.525 72.748 412.111 72.748L432.033 72.7725C433.026 72.7725 433.832 72.4551 434.45 71.8203L434.938 72.3086C434.027 73.985 433.571 77.0205 433.571 81.415C433.571 82.0986 433.718 83.417 434.011 85.3701C434.32 87.3395 434.475 88.6416 434.475 89.2764C434.475 89.9274 434.369 90.4076 434.157 90.7168C433.946 91.026 433.693 91.1807 433.4 91.1807C433.107 91.1807 432.847 91.0098 432.619 90.668C432.408 90.3262 432.302 89.8542 432.302 89.252L432.692 83.8564C432.692 82.4242 432.44 81.3499 431.936 80.6338C431.431 79.9014 430.747 79.5352 429.885 79.5352C427.948 79.5352 426.979 80.9919 426.979 83.9053C426.979 85.0283 427.142 86.6559 427.468 88.7881C427.81 90.9202 427.98 92.2549 427.98 92.792C427.98 93.3291 427.858 93.736 427.614 94.0127C427.37 94.3057 427.085 94.4521 426.76 94.4521C426.451 94.4521 426.174 94.3138 425.93 94.0371C425.702 93.7767 425.588 93.4186 425.588 92.9629L426.027 85.1748C426.027 82.3265 425.417 80.9023 424.196 80.9023L422.341 80.9512H403.151C401.703 80.9512 400.637 81.2279 399.953 81.7812C399.172 82.4323 398.781 84.2715 398.781 87.2988C398.781 88.5195 398.968 90.318 399.343 92.6943C399.717 95.0869 399.904 96.8854 399.904 98.0898C399.904 99.8314 399.286 100.702 398.049 100.702C396.714 100.702 396.047 99.807 396.047 98.0166C396.047 96.7959 396.315 94.9893 396.853 92.5967C397.39 90.2041 397.658 88.3893 397.658 87.1523L397.536 78.9736V50.5068C397.536 49.4977 397.227 48.6921 396.608 48.0898L397.097 47.5771C397.764 48.2119 398.578 48.5293 399.538 48.5293H430.886C431.879 48.5293 432.692 48.2119 433.327 47.5771L433.815 48.0898C433.099 48.806 432.741 50.2057 432.741 52.2891V53.3877C432.741 55.2269 433.099 56.4883 433.815 57.1719L433.327 57.6357C432.513 56.8057 430.601 56.3906 427.59 56.3906L415.456 56.9521C412.461 56.9521 410.557 56.5371 409.743 55.707L409.23 56.1953C409.865 56.8138 410.183 57.6357 410.183 58.6611C410.183 59.6702 409.865 60.484 409.23 61.1025L409.743 61.5664C410.524 60.7526 412.168 60.3457 414.675 60.3457L424.904 60.9072C427.427 60.9072 429.095 60.5003 429.909 59.6865L430.422 60.1748C429.706 60.891 429.348 62.3883 429.348 64.667V65.6191C429.348 67.3607 429.706 68.5895 430.422 69.3057L429.909 69.8184C429.128 69.0046 427.476 68.5977 424.953 68.5977L414.724 69.1348C412.217 69.1348 410.557 68.7279 409.743 67.9141L409.255 68.4023C409.938 69.1022 410.28 70.3229 410.28 72.0645L410.231 73.9688L409.816 76.8984C409.816 77.4844 410.028 77.7773 410.451 77.7773C410.891 77.7773 411.11 77.5007 411.11 76.9473ZM454.836 89.6426L455.104 84.8574C455.104 82.123 454.763 80.7559 454.079 80.7559C453.396 80.7559 453.054 81.6185 453.054 83.3438V84.0518C453.054 84.7516 453.208 85.7933 453.518 87.1768C453.843 88.5602 454.006 89.61 454.006 90.3262C454.006 91.4329 453.591 91.9863 452.761 91.9863C451.947 91.9863 451.54 91.4329 451.54 90.3262C451.54 89.5775 451.711 88.487 452.053 87.0547C452.395 85.6224 452.565 84.5319 452.565 83.7832L452.517 73.8223C452.517 73.3177 452.582 72.9271 452.712 72.6504C452.858 72.3737 453.151 72.1702 453.591 72.04L453.347 71.1123C453.119 71.1774 452.915 71.21 452.736 71.21C452.574 71.21 452.403 71.153 452.224 71.0391C452.012 70.8926 451.768 70.5996 451.491 70.1602L439.113 49.9941C438.625 49.1966 437.958 48.5456 437.111 48.041L437.331 47.626C438.145 48.0817 439.064 48.3096 440.09 48.3096L449.929 48.2607C450.905 48.2607 451.597 47.9108 452.004 47.2109L452.761 47.626C452.549 48.0166 452.443 48.4479 452.443 48.9199C452.443 49.3757 452.769 50.165 453.42 51.2881C454.087 52.4111 454.812 53.5016 455.593 54.5596C456.39 55.6175 457.115 56.7894 457.766 58.0752C458.433 59.361 458.767 60.4759 458.767 61.4199H459.279V61.2246C459.279 59.6947 460.337 57.4648 462.453 54.5352C464.569 51.6055 465.627 49.6442 465.627 48.6514C465.627 48.391 465.513 48.0492 465.285 47.626L466.042 47.2109C466.449 47.9108 467.149 48.2607 468.142 48.2607L477.395 48.3096C478.404 48.3096 479.315 48.0817 480.129 47.626L480.349 48.041C479.47 48.5618 478.794 49.2129 478.322 49.9941L465.822 70.1602C465.399 70.86 464.968 71.21 464.528 71.21C464.349 71.21 464.162 71.1774 463.967 71.1123L463.674 72.0156C464.455 72.2598 464.846 73.0736 464.846 74.457L464.699 77.8506C464.699 79.4131 465.041 80.5361 465.725 81.2197L465.212 81.708C464.577 81.0732 463.771 80.7559 462.795 80.7559H457.082C456.04 80.7559 455.52 82.2288 455.52 85.1748L455.886 89.7158C455.886 90.2855 455.707 90.5703 455.349 90.5703C455.007 90.5703 454.836 90.2611 454.836 89.6426Z" fill="#CD0000"/>
</g>
<defs>
<filter id="filter0_d_107_263" x="0.539062" y="0.576172" width="529.81" height="154.126" filterUnits="userSpaceOnUse" color-interpolation-filters="sRGB">
<feFlood flood-opacity="0" result="BackgroundImageFix"/>
<feColorMatrix in="SourceAlpha" type="matrix" values="0 0 0 0 0 0 0 0 0 0 0 0 0 0 0 0 0 0 127 0" result="hardAlpha"/>
<feOffset dy="4"/>
<feGaussianBlur stdDeviation="25"/>
<feComposite in2="hardAlpha" operator="out"/>
<feColorMatrix type="matrix" values="0 0 0 0 0.803922 0 0 0 0 0 0 0 0 0 0 0 0 0 0.5 0"/>
<feBlend mode="normal" in2="BackgroundImageFix" result="effect1_dropShadow_107_263"/>
<feBlend mode="normal" in="SourceGraphic" in2="effect1_dropShadow_107_263" result="shape"/>
</filter>
</defs>
</svg>
